<svg xmlns="http://www.w3.org/2000/svg" height="40" viewBox="0 -960 960 960" width="40"><path d="M401.333-240v-66.666h60L577-439.333 461.333-573.334H390l-68.667 358.667q-8 45-35 69.834Q259.333-120 217-120t-70-24q-27.667-24-27.667-61.333Q119.333-234 135-251.5t40.333-17.5q22.333 0 37.167 13.667 14.833 13.666 14.833 35 0 9-3.167 16.667-3.167 7.666-8.833 13.333 2.666 1.333 5.666 2 3.001.667 6.334.667 10.334-.334 17.5-10.167 7.167-9.834 10.5-25.834L322-573.334H200V-640h134.333l21-108.667q8.334-42.666 36.5-67Q420-840 460.667-840q42 0 69 24.667 27 24.666 27 61.666 0 28-15.667 45.5t-40.333 17.5q-21.667 0-36.833-13.333-15.167-13.333-15.167-34.333 0-8.334 2.833-16 2.834-7.667 7.167-13.334-1.333-1.333-4-2.333-2.667-1-5.333-1-10.667.666-18.001 10-7.333 9.333-10.667 24.667L403-640h189v66.666h-42.001l72.668 83.668 69.334-83.668h-42.667V-640H840v66.666h-59.333L665.666-439.333l115.001 132.667H840V-240H649.334v-66.666h42.667l-70.668-82.001-72 82.001H592V-240H401.333Z"/></svg>